<svg width="518" height="510" viewBox="0 0 518 510" fill="none" xmlns="http://www.w3.org/2000/svg">
<path d="M258 0.5C323.998 0.5 377.5 54.002 377.5 120C377.5 185.998 323.998 239.5 258 239.5C192.002 239.5 138.5 185.998 138.5 120C138.5 54.002 192.002 0.5 258 0.5Z" stroke="#D17650"/>
<path d="M258 0.5C323.998 0.5 377.5 54.002 377.5 120C377.5 185.998 323.998 239.5 258 239.5C192.002 239.5 138.5 185.998 138.5 120C138.5 54.002 192.002 0.5 258 0.5Z" stroke="url(#paint0_linear_2297_5288)"/>
<path d="M251.274 64.7568C254.026 59.1828 261.974 59.1828 264.726 64.7568L276.263 88.1338C277.501 90.6425 279.895 92.3819 282.663 92.7842L308.461 96.5322C314.613 97.4262 317.069 104.986 312.617 109.325L293.95 127.521C291.947 129.474 291.032 132.289 291.505 135.046L295.912 160.739C296.963 166.866 290.532 171.538 285.03 168.646L261.955 156.515C259.479 155.213 256.521 155.213 254.045 156.515L230.97 168.646C225.468 171.538 219.037 166.866 220.088 160.739L224.495 135.046C224.968 132.289 224.053 129.474 222.05 127.521L203.383 109.325C198.931 104.986 201.387 97.4262 207.539 96.5322L233.337 92.7842C236.105 92.3819 238.499 90.6425 239.737 88.1338L251.274 64.7568Z" stroke="#D17650"/>
<path d="M251.274 64.7568C254.026 59.1828 261.974 59.1828 264.726 64.7568L276.263 88.1338C277.501 90.6425 279.895 92.3819 282.663 92.7842L308.461 96.5322C314.613 97.4262 317.069 104.986 312.617 109.325L293.95 127.521C291.947 129.474 291.032 132.289 291.505 135.046L295.912 160.739C296.963 166.866 290.532 171.538 285.03 168.646L261.955 156.515C259.479 155.213 256.521 155.213 254.045 156.515L230.97 168.646C225.468 171.538 219.037 166.866 220.088 160.739L224.495 135.046C224.968 132.289 224.053 129.474 222.05 127.521L203.383 109.325C198.931 104.986 201.387 97.4262 207.539 96.5322L233.337 92.7842C236.105 92.3819 238.499 90.6425 239.737 88.1338L251.274 64.7568Z" stroke="url(#paint1_linear_2297_5288)"/>
<path d="M120 90.5C185.998 90.5 239.5 144.002 239.5 210C239.5 275.998 185.998 329.5 120 329.5C54.002 329.5 0.500004 275.998 0.5 210C0.5 144.002 54.002 90.5 120 90.5Z" stroke="#A36AB7"/>
<path d="M120 90.5C185.998 90.5 239.5 144.002 239.5 210C239.5 275.998 185.998 329.5 120 329.5C54.002 329.5 0.500004 275.998 0.5 210C0.5 144.002 54.002 90.5 120 90.5Z" stroke="url(#paint2_linear_2297_5288)"/>
<path d="M113.274 154.757C116.026 149.183 123.974 149.183 126.726 154.757L138.263 178.134C139.501 180.643 141.895 182.382 144.663 182.784L170.461 186.532C176.613 187.426 179.069 194.986 174.617 199.325L155.95 217.521C153.947 219.474 153.032 222.289 153.505 225.046L157.912 250.739C158.963 256.866 152.532 261.538 147.03 258.646L123.955 246.515C121.479 245.213 118.521 245.213 116.045 246.515L92.9697 258.646C87.4676 261.538 81.0371 256.866 82.0879 250.739L86.4951 225.046C86.968 222.289 86.0531 219.474 84.0498 217.521L65.3828 199.325C60.9315 194.986 63.3875 187.426 69.5391 186.532L95.3369 182.784C98.1055 182.382 100.499 180.643 101.737 178.134L113.274 154.757Z" stroke="#A36AB7"/>
<path d="M113.274 154.757C116.026 149.183 123.974 149.183 126.726 154.757L138.263 178.134C139.501 180.643 141.895 182.382 144.663 182.784L170.461 186.532C176.613 187.426 179.069 194.986 174.617 199.325L155.95 217.521C153.947 219.474 153.032 222.289 153.505 225.046L157.912 250.739C158.963 256.866 152.532 261.538 147.03 258.646L123.955 246.515C121.479 245.213 118.521 245.213 116.045 246.515L92.9697 258.646C87.4676 261.538 81.0371 256.866 82.0879 250.739L86.4951 225.046C86.968 222.289 86.0531 219.474 84.0498 217.521L65.3828 199.325C60.9315 194.986 63.3875 187.426 69.5391 186.532L95.3369 182.784C98.1055 182.382 100.499 180.643 101.737 178.134L113.274 154.757Z" stroke="url(#paint3_linear_2297_5288)"/>
<path d="M398 90.5C463.998 90.5 517.5 144.002 517.5 210C517.5 275.998 463.998 329.5 398 329.5C332.002 329.5 278.5 275.998 278.5 210C278.5 144.002 332.002 90.5 398 90.5Z" stroke="#E6C97E"/>
<path d="M398 90.5C463.998 90.5 517.5 144.002 517.5 210C517.5 275.998 463.998 329.5 398 329.5C332.002 329.5 278.5 275.998 278.5 210C278.5 144.002 332.002 90.5 398 90.5Z" stroke="url(#paint4_linear_2297_5288)"/>
<path d="M391.274 154.757C394.026 149.183 401.974 149.183 404.726 154.757L416.263 178.134C417.501 180.643 419.895 182.382 422.663 182.784L448.461 186.532C454.613 187.426 457.069 194.986 452.617 199.325L433.95 217.521C431.947 219.474 431.032 222.289 431.505 225.046L435.912 250.739C436.963 256.866 430.532 261.538 425.03 258.646L401.955 246.515C399.479 245.213 396.521 245.213 394.045 246.515L370.97 258.646C365.468 261.538 359.037 256.866 360.088 250.739L364.495 225.046C364.968 222.289 364.053 219.474 362.05 217.521L343.383 199.325C338.931 194.986 341.387 187.426 347.539 186.532L373.337 182.784C376.105 182.382 378.499 180.643 379.737 178.134L391.274 154.757Z" stroke="#E6C97E"/>
<path d="M391.274 154.757C394.026 149.183 401.974 149.183 404.726 154.757L416.263 178.134C417.501 180.643 419.895 182.382 422.663 182.784L448.461 186.532C454.613 187.426 457.069 194.986 452.617 199.325L433.95 217.521C431.947 219.474 431.032 222.289 431.505 225.046L435.912 250.739C436.963 256.866 430.532 261.538 425.03 258.646L401.955 246.515C399.479 245.213 396.521 245.213 394.045 246.515L370.97 258.646C365.468 261.538 359.037 256.866 360.088 250.739L364.495 225.046C364.968 222.289 364.053 219.474 362.05 217.521L343.383 199.325C338.931 194.986 341.387 187.426 347.539 186.532L373.337 182.784C376.105 182.382 378.499 180.643 379.737 178.134L391.274 154.757Z" stroke="url(#paint5_linear_2297_5288)"/>
<path d="M168 270.5C233.998 270.5 287.5 324.002 287.5 390C287.5 455.998 233.998 509.5 168 509.5C102.002 509.5 48.5 455.998 48.5 390C48.5 324.002 102.002 270.5 168 270.5Z" stroke="#8CA3DA"/>
<path d="M168 270.5C233.998 270.5 287.5 324.002 287.5 390C287.5 455.998 233.998 509.5 168 509.5C102.002 509.5 48.5 455.998 48.5 390C48.5 324.002 102.002 270.5 168 270.5Z" stroke="url(#paint6_linear_2297_5288)"/>
<path d="M161.274 334.757C164.026 329.183 171.974 329.183 174.726 334.757L186.263 358.134C187.501 360.643 189.895 362.382 192.663 362.784L218.461 366.532C224.613 367.426 227.069 374.986 222.617 379.325L203.95 397.521C201.947 399.474 201.032 402.289 201.505 405.046L205.912 430.739C206.963 436.866 200.532 441.538 195.03 438.646L171.955 426.515C169.479 425.213 166.521 425.213 164.045 426.515L140.97 438.646C135.468 441.538 129.037 436.866 130.088 430.739L134.495 405.046C134.968 402.289 134.053 399.474 132.05 397.521L113.383 379.325C108.931 374.986 111.387 367.426 117.539 366.532L143.337 362.784C146.105 362.382 148.499 360.643 149.737 358.134L161.274 334.757Z" stroke="#8CA3DA"/>
<path d="M161.274 334.757C164.026 329.183 171.974 329.183 174.726 334.757L186.263 358.134C187.501 360.643 189.895 362.382 192.663 362.784L218.461 366.532C224.613 367.426 227.069 374.986 222.617 379.325L203.95 397.521C201.947 399.474 201.032 402.289 201.505 405.046L205.912 430.739C206.963 436.866 200.532 441.538 195.03 438.646L171.955 426.515C169.479 425.213 166.521 425.213 164.045 426.515L140.97 438.646C135.468 441.538 129.037 436.866 130.088 430.739L134.495 405.046C134.968 402.289 134.053 399.474 132.05 397.521L113.383 379.325C108.931 374.986 111.387 367.426 117.539 366.532L143.337 362.784C146.105 362.382 148.499 360.643 149.737 358.134L161.274 334.757Z" stroke="url(#paint7_linear_2297_5288)"/>
<path d="M348 270.5C413.998 270.5 467.5 324.002 467.5 390C467.5 455.998 413.998 509.5 348 509.5C282.002 509.5 228.5 455.998 228.5 390C228.5 324.002 282.002 270.5 348 270.5Z" stroke="#B6C190"/>
<path d="M348 270.5C413.998 270.5 467.5 324.002 467.5 390C467.5 455.998 413.998 509.5 348 509.5C282.002 509.5 228.5 455.998 228.5 390C228.5 324.002 282.002 270.5 348 270.5Z" stroke="url(#paint8_linear_2297_5288)"/>
<path d="M341.274 334.757C344.026 329.183 351.974 329.183 354.726 334.757L366.263 358.134C367.501 360.643 369.895 362.382 372.663 362.784L398.461 366.532C404.613 367.426 407.069 374.986 402.617 379.325L383.95 397.521C381.947 399.474 381.032 402.289 381.505 405.046L385.912 430.739C386.963 436.866 380.532 441.538 375.03 438.646L351.955 426.515C349.479 425.213 346.521 425.213 344.045 426.515L320.97 438.646C315.468 441.538 309.037 436.866 310.088 430.739L314.495 405.046C314.968 402.289 314.053 399.474 312.05 397.521L293.383 379.325C288.931 374.986 291.387 367.426 297.539 366.532L323.337 362.784C326.105 362.382 328.499 360.643 329.737 358.134L341.274 334.757Z" stroke="#B6C190"/>
<path d="M341.274 334.757C344.026 329.183 351.974 329.183 354.726 334.757L366.263 358.134C367.501 360.643 369.895 362.382 372.663 362.784L398.461 366.532C404.613 367.426 407.069 374.986 402.617 379.325L383.95 397.521C381.947 399.474 381.032 402.289 381.505 405.046L385.912 430.739C386.963 436.866 380.532 441.538 375.03 438.646L351.955 426.515C349.479 425.213 346.521 425.213 344.045 426.515L320.97 438.646C315.468 441.538 309.037 436.866 310.088 430.739L314.495 405.046C314.968 402.289 314.053 399.474 312.05 397.521L293.383 379.325C288.931 374.986 291.387 367.426 297.539 366.532L323.337 362.784C326.105 362.382 328.499 360.643 329.737 358.134L341.274 334.757Z" stroke="url(#paint9_linear_2297_5288)"/>
<defs>
<linearGradient id="paint0_linear_2297_5288" x1="258" y1="120" x2="258" y2="240" gradientUnits="userSpaceOnUse">
<stop stop-opacity="0.6"/>
<stop offset="1" stop-opacity="0"/>
</linearGradient>
<linearGradient id="paint1_linear_2297_5288" x1="258" y1="50" x2="258" y2="190" gradientUnits="userSpaceOnUse">
<stop stop-opacity="0.8"/>
<stop offset="1" stop-opacity="0"/>
</linearGradient>
<linearGradient id="paint2_linear_2297_5288" x1="120" y1="210" x2="120" y2="330" gradientUnits="userSpaceOnUse">
<stop stop-opacity="0.6"/>
<stop offset="1" stop-opacity="0"/>
</linearGradient>
<linearGradient id="paint3_linear_2297_5288" x1="120" y1="140" x2="120" y2="280" gradientUnits="userSpaceOnUse">
<stop stop-opacity="0.8"/>
<stop offset="1" stop-opacity="0"/>
</linearGradient>
<linearGradient id="paint4_linear_2297_5288" x1="398" y1="210" x2="398" y2="330" gradientUnits="userSpaceOnUse">
<stop stop-opacity="0.6"/>
<stop offset="1" stop-opacity="0"/>
</linearGradient>
<linearGradient id="paint5_linear_2297_5288" x1="398" y1="140" x2="398" y2="280" gradientUnits="userSpaceOnUse">
<stop stop-opacity="0.8"/>
<stop offset="1" stop-opacity="0"/>
</linearGradient>
<linearGradient id="paint6_linear_2297_5288" x1="168" y1="390" x2="168" y2="510" gradientUnits="userSpaceOnUse">
<stop stop-opacity="0.6"/>
<stop offset="1" stop-opacity="0"/>
</linearGradient>
<linearGradient id="paint7_linear_2297_5288" x1="168" y1="320" x2="168" y2="460" gradientUnits="userSpaceOnUse">
<stop stop-opacity="0.8"/>
<stop offset="1" stop-opacity="0"/>
</linearGradient>
<linearGradient id="paint8_linear_2297_5288" x1="348" y1="390" x2="348" y2="510" gradientUnits="userSpaceOnUse">
<stop stop-opacity="0.6"/>
<stop offset="1" stop-opacity="0"/>
</linearGradient>
<linearGradient id="paint9_linear_2297_5288" x1="348" y1="320" x2="348" y2="460" gradientUnits="userSpaceOnUse">
<stop stop-opacity="0.8"/>
<stop offset="1" stop-opacity="0"/>
</linearGradient>
</defs>
</svg>
