<svg width="600" height="600" viewBox="0 0 600 600" fill="none" xmlns="http://www.w3.org/2000/svg">
<path d="M300 0.5C365.998 0.5 419.5 54.002 419.5 120C419.5 185.998 365.998 239.5 300 239.5C234.002 239.5 180.5 185.998 180.5 120C180.5 54.002 234.002 0.5 300 0.5Z" stroke="#D17650"/>
<path d="M300 0.5C365.998 0.5 419.5 54.002 419.5 120C419.5 185.998 365.998 239.5 300 239.5C234.002 239.5 180.5 185.998 180.5 120C180.5 54.002 234.002 0.5 300 0.5Z" stroke="url(#paint0_linear_4249_2392)"/>
<path d="M293.274 64.7568C296.026 59.1828 303.974 59.1828 306.726 64.7568L318.263 88.1338C319.501 90.6425 321.895 92.3819 324.663 92.7842L350.461 96.5322C356.613 97.4262 359.069 104.986 354.617 109.325L335.95 127.521C333.947 129.474 333.032 132.289 333.505 135.046L337.912 160.739C338.963 166.866 332.532 171.538 327.03 168.646L303.955 156.515C301.479 155.213 298.521 155.213 296.045 156.515L272.97 168.646C267.468 171.538 261.037 166.866 262.088 160.739L266.495 135.046C266.968 132.289 266.053 129.474 264.05 127.521L245.383 109.325C240.931 104.986 243.387 97.4262 249.539 96.5322L275.337 92.7842C278.105 92.3819 280.499 90.6425 281.737 88.1338L293.274 64.7568Z" stroke="#D17650"/>
<path d="M293.274 64.7568C296.026 59.1828 303.974 59.1828 306.726 64.7568L318.263 88.1338C319.501 90.6425 321.895 92.3819 324.663 92.7842L350.461 96.5322C356.613 97.4262 359.069 104.986 354.617 109.325L335.95 127.521C333.947 129.474 333.032 132.289 333.505 135.046L337.912 160.739C338.963 166.866 332.532 171.538 327.03 168.646L303.955 156.515C301.479 155.213 298.521 155.213 296.045 156.515L272.97 168.646C267.468 171.538 261.037 166.866 262.088 160.739L266.495 135.046C266.968 132.289 266.053 129.474 264.05 127.521L245.383 109.325C240.931 104.986 243.387 97.4262 249.539 96.5322L275.337 92.7842C278.105 92.3819 280.499 90.6425 281.737 88.1338L293.274 64.7568Z" stroke="url(#paint1_linear_4249_2392)"/>
<path d="M120 135.5C185.998 135.5 239.5 189.002 239.5 255C239.5 320.998 185.998 374.5 120 374.5C54.002 374.5 0.500004 320.998 0.5 255C0.5 189.002 54.002 135.5 120 135.5Z" stroke="#A36AB7"/>
<path d="M120 135.5C185.998 135.5 239.5 189.002 239.5 255C239.5 320.998 185.998 374.5 120 374.5C54.002 374.5 0.500004 320.998 0.5 255C0.5 189.002 54.002 135.5 120 135.5Z" stroke="url(#paint2_linear_4249_2392)"/>
<path d="M113.274 199.757C116.026 194.183 123.974 194.183 126.726 199.757L138.263 223.134C139.501 225.643 141.895 227.382 144.663 227.784L170.461 231.532C176.613 232.426 179.069 239.986 174.617 244.325L155.95 262.521C153.947 264.474 153.032 267.289 153.505 270.046L157.912 295.739C158.963 301.866 152.532 306.538 147.03 303.646L123.955 291.515C121.479 290.213 118.521 290.213 116.045 291.515L92.9697 303.646C87.4676 306.538 81.0371 301.866 82.0879 295.739L86.4951 270.046C86.968 267.289 86.0531 264.474 84.0498 262.521L65.3828 244.325C60.9315 239.986 63.3875 232.426 69.5391 231.532L95.3369 227.784C98.1055 227.382 100.499 225.643 101.737 223.134L113.274 199.757Z" stroke="#A36AB7"/>
<path d="M113.274 199.757C116.026 194.183 123.974 194.183 126.726 199.757L138.263 223.134C139.501 225.643 141.895 227.382 144.663 227.784L170.461 231.532C176.613 232.426 179.069 239.986 174.617 244.325L155.95 262.521C153.947 264.474 153.032 267.289 153.505 270.046L157.912 295.739C158.963 301.866 152.532 306.538 147.03 303.646L123.955 291.515C121.479 290.213 118.521 290.213 116.045 291.515L92.9697 303.646C87.4676 306.538 81.0371 301.866 82.0879 295.739L86.4951 270.046C86.968 267.289 86.0531 264.474 84.0498 262.521L65.3828 244.325C60.9315 239.986 63.3875 232.426 69.5391 231.532L95.3369 227.784C98.1055 227.382 100.499 225.643 101.737 223.134L113.274 199.757Z" stroke="url(#paint3_linear_4249_2392)"/>
<path d="M480 135.5C545.998 135.5 599.5 189.002 599.5 255C599.5 320.998 545.998 374.5 480 374.5C414.002 374.5 360.5 320.998 360.5 255C360.5 189.002 414.002 135.5 480 135.5Z" stroke="#E6C97E"/>
<path d="M480 135.5C545.998 135.5 599.5 189.002 599.5 255C599.5 320.998 545.998 374.5 480 374.5C414.002 374.5 360.5 320.998 360.5 255C360.5 189.002 414.002 135.5 480 135.5Z" stroke="url(#paint4_linear_4249_2392)"/>
<path d="M473.274 199.757C476.026 194.183 483.974 194.183 486.726 199.757L498.263 223.134C499.501 225.643 501.895 227.382 504.663 227.784L530.461 231.532C536.613 232.426 539.069 239.986 534.617 244.325L515.95 262.521C513.947 264.474 513.032 267.289 513.505 270.046L517.912 295.739C518.963 301.866 512.532 306.538 507.03 303.646L483.955 291.515C481.479 290.213 478.521 290.213 476.045 291.515L452.97 303.646C447.468 306.538 441.037 301.866 442.088 295.739L446.495 270.046C446.968 267.289 446.053 264.474 444.05 262.521L425.383 244.325C420.931 239.986 423.387 232.426 429.539 231.532L455.337 227.784C458.105 227.382 460.499 225.643 461.737 223.134L473.274 199.757Z" stroke="#E6C97E"/>
<path d="M473.274 199.757C476.026 194.183 483.974 194.183 486.726 199.757L498.263 223.134C499.501 225.643 501.895 227.382 504.663 227.784L530.461 231.532C536.613 232.426 539.069 239.986 534.617 244.325L515.95 262.521C513.947 264.474 513.032 267.289 513.505 270.046L517.912 295.739C518.963 301.866 512.532 306.538 507.03 303.646L483.955 291.515C481.479 290.213 478.521 290.213 476.045 291.515L452.97 303.646C447.468 306.538 441.037 301.866 442.088 295.739L446.495 270.046C446.968 267.289 446.053 264.474 444.05 262.521L425.383 244.325C420.931 239.986 423.387 232.426 429.539 231.532L455.337 227.784C458.105 227.382 460.499 225.643 461.737 223.134L473.274 199.757Z" stroke="url(#paint5_linear_4249_2392)"/>
<path d="M195 360.5C260.998 360.5 314.5 414.002 314.5 480C314.5 545.998 260.998 599.5 195 599.5C129.002 599.5 75.5 545.998 75.5 480C75.5 414.002 129.002 360.5 195 360.5Z" stroke="#8CA3DA"/>
<path d="M195 360.5C260.998 360.5 314.5 414.002 314.5 480C314.5 545.998 260.998 599.5 195 599.5C129.002 599.5 75.5 545.998 75.5 480C75.5 414.002 129.002 360.5 195 360.5Z" stroke="url(#paint6_linear_4249_2392)"/>
<path d="M188.274 424.757C191.026 419.183 198.974 419.183 201.726 424.757L213.263 448.134C214.501 450.643 216.895 452.382 219.663 452.784L245.461 456.532C251.613 457.426 254.069 464.986 249.617 469.325L230.95 487.521C228.947 489.474 228.032 492.289 228.505 495.046L232.912 520.739C233.963 526.866 227.532 531.538 222.03 528.646L198.955 516.515C196.479 515.213 193.521 515.213 191.045 516.515L167.97 528.646C162.468 531.538 156.037 526.866 157.088 520.739L161.495 495.046C161.968 492.289 161.053 489.474 159.05 487.521L140.383 469.325C135.931 464.986 138.387 457.426 144.539 456.532L170.337 452.784C173.105 452.382 175.499 450.643 176.737 448.134L188.274 424.757Z" stroke="#8CA3DA"/>
<path d="M188.274 424.757C191.026 419.183 198.974 419.183 201.726 424.757L213.263 448.134C214.501 450.643 216.895 452.382 219.663 452.784L245.461 456.532C251.613 457.426 254.069 464.986 249.617 469.325L230.95 487.521C228.947 489.474 228.032 492.289 228.505 495.046L232.912 520.739C233.963 526.866 227.532 531.538 222.03 528.646L198.955 516.515C196.479 515.213 193.521 515.213 191.045 516.515L167.97 528.646C162.468 531.538 156.037 526.866 157.088 520.739L161.495 495.046C161.968 492.289 161.053 489.474 159.05 487.521L140.383 469.325C135.931 464.986 138.387 457.426 144.539 456.532L170.337 452.784C173.105 452.382 175.499 450.643 176.737 448.134L188.274 424.757Z" stroke="url(#paint7_linear_4249_2392)"/>
<path d="M412 360.5C477.998 360.5 531.5 414.002 531.5 480C531.5 545.998 477.998 599.5 412 599.5C346.002 599.5 292.5 545.998 292.5 480C292.5 414.002 346.002 360.5 412 360.5Z" stroke="#B6C190"/>
<path d="M412 360.5C477.998 360.5 531.5 414.002 531.5 480C531.5 545.998 477.998 599.5 412 599.5C346.002 599.5 292.5 545.998 292.5 480C292.5 414.002 346.002 360.5 412 360.5Z" stroke="url(#paint8_linear_4249_2392)"/>
<path d="M405.274 424.757C408.026 419.183 415.974 419.183 418.726 424.757L430.263 448.134C431.501 450.643 433.895 452.382 436.663 452.784L462.461 456.532C468.613 457.426 471.069 464.986 466.617 469.325L447.95 487.521C445.947 489.474 445.032 492.289 445.505 495.046L449.912 520.739C450.963 526.866 444.532 531.538 439.03 528.646L415.955 516.515C413.479 515.213 410.521 515.213 408.045 516.515L384.97 528.646C379.468 531.538 373.037 526.866 374.088 520.739L378.495 495.046C378.968 492.289 378.053 489.474 376.05 487.521L357.383 469.325C352.931 464.986 355.387 457.426 361.539 456.532L387.337 452.784C390.105 452.382 392.499 450.643 393.737 448.134L405.274 424.757Z" stroke="#B6C190"/>
<path d="M405.274 424.757C408.026 419.183 415.974 419.183 418.726 424.757L430.263 448.134C431.501 450.643 433.895 452.382 436.663 452.784L462.461 456.532C468.613 457.426 471.069 464.986 466.617 469.325L447.95 487.521C445.947 489.474 445.032 492.289 445.505 495.046L449.912 520.739C450.963 526.866 444.532 531.538 439.03 528.646L415.955 516.515C413.479 515.213 410.521 515.213 408.045 516.515L384.97 528.646C379.468 531.538 373.037 526.866 374.088 520.739L378.495 495.046C378.968 492.289 378.053 489.474 376.05 487.521L357.383 469.325C352.931 464.986 355.387 457.426 361.539 456.532L387.337 452.784C390.105 452.382 392.499 450.643 393.737 448.134L405.274 424.757Z" stroke="url(#paint9_linear_4249_2392)"/>
<defs>
<linearGradient id="paint0_linear_4249_2392" x1="300" y1="120" x2="300" y2="240" gradientUnits="userSpaceOnUse">
<stop stop-opacity="0.6"/>
<stop offset="1" stop-opacity="0"/>
</linearGradient>
<linearGradient id="paint1_linear_4249_2392" x1="300" y1="50" x2="300" y2="190" gradientUnits="userSpaceOnUse">
<stop stop-opacity="0.8"/>
<stop offset="1" stop-opacity="0"/>
</linearGradient>
<linearGradient id="paint2_linear_4249_2392" x1="120" y1="255" x2="120" y2="375" gradientUnits="userSpaceOnUse">
<stop stop-opacity="0.6"/>
<stop offset="1" stop-opacity="0"/>
</linearGradient>
<linearGradient id="paint3_linear_4249_2392" x1="120" y1="185" x2="120" y2="325" gradientUnits="userSpaceOnUse">
<stop stop-opacity="0.8"/>
<stop offset="1" stop-opacity="0"/>
</linearGradient>
<linearGradient id="paint4_linear_4249_2392" x1="480" y1="255" x2="480" y2="375" gradientUnits="userSpaceOnUse">
<stop stop-opacity="0.6"/>
<stop offset="1" stop-opacity="0"/>
</linearGradient>
<linearGradient id="paint5_linear_4249_2392" x1="480" y1="185" x2="480" y2="325" gradientUnits="userSpaceOnUse">
<stop stop-opacity="0.8"/>
<stop offset="1" stop-opacity="0"/>
</linearGradient>
<linearGradient id="paint6_linear_4249_2392" x1="195" y1="480" x2="195" y2="600" gradientUnits="userSpaceOnUse">
<stop stop-opacity="0.6"/>
<stop offset="1" stop-opacity="0"/>
</linearGradient>
<linearGradient id="paint7_linear_4249_2392" x1="195" y1="410" x2="195" y2="550" gradientUnits="userSpaceOnUse">
<stop stop-opacity="0.8"/>
<stop offset="1" stop-opacity="0"/>
</linearGradient>
<linearGradient id="paint8_linear_4249_2392" x1="412" y1="480" x2="412" y2="600" gradientUnits="userSpaceOnUse">
<stop stop-opacity="0.6"/>
<stop offset="1" stop-opacity="0"/>
</linearGradient>
<linearGradient id="paint9_linear_4249_2392" x1="412" y1="410" x2="412" y2="550" gradientUnits="userSpaceOnUse">
<stop stop-opacity="0.8"/>
<stop offset="1" stop-opacity="0"/>
</linearGradient>
</defs>
</svg>
