<svg width="607" height="587" viewBox="0 0 607 587" fill="none" xmlns="http://www.w3.org/2000/svg">
<path d="M304 0.5C369.998 0.5 423.5 54.002 423.5 120C423.5 185.998 369.998 239.5 304 239.5C238.002 239.5 184.5 185.998 184.5 120C184.5 54.002 238.002 0.5 304 0.5Z" stroke="#D17650"/>
<path d="M304 0.5C369.998 0.5 423.5 54.002 423.5 120C423.5 185.998 369.998 239.5 304 239.5C238.002 239.5 184.5 185.998 184.5 120C184.5 54.002 238.002 0.5 304 0.5Z" stroke="url(#paint0_linear_2301_5287)"/>
<path d="M297.274 64.7568C300.026 59.1828 307.974 59.1828 310.726 64.7568L322.263 88.1338C323.501 90.6425 325.895 92.3819 328.663 92.7842L354.461 96.5322C360.613 97.4262 363.069 104.986 358.617 109.325L339.95 127.521C337.947 129.474 337.032 132.289 337.505 135.046L341.912 160.739C342.963 166.866 336.532 171.538 331.03 168.646L307.955 156.515C305.479 155.213 302.521 155.213 300.045 156.515L276.97 168.646C271.468 171.538 265.037 166.866 266.088 160.739L270.495 135.046C270.968 132.289 270.053 129.474 268.05 127.521L249.383 109.325C244.931 104.986 247.387 97.4262 253.539 96.5322L279.337 92.7842C282.105 92.3819 284.499 90.6425 285.737 88.1338L297.274 64.7568Z" stroke="#D17650"/>
<path d="M297.274 64.7568C300.026 59.1828 307.974 59.1828 310.726 64.7568L322.263 88.1338C323.501 90.6425 325.895 92.3819 328.663 92.7842L354.461 96.5322C360.613 97.4262 363.069 104.986 358.617 109.325L339.95 127.521C337.947 129.474 337.032 132.289 337.505 135.046L341.912 160.739C342.963 166.866 336.532 171.538 331.03 168.646L307.955 156.515C305.479 155.213 302.521 155.213 300.045 156.515L276.97 168.646C271.468 171.538 265.037 166.866 266.088 160.739L270.495 135.046C270.968 132.289 270.053 129.474 268.05 127.521L249.383 109.325C244.931 104.986 247.387 97.4262 253.539 96.5322L279.337 92.7842C282.105 92.3819 284.499 90.6425 285.737 88.1338L297.274 64.7568Z" stroke="url(#paint1_linear_2301_5287)"/>
<path d="M487 132.5C552.998 132.5 606.5 186.002 606.5 252C606.5 317.998 552.998 371.5 487 371.5C421.002 371.5 367.5 317.998 367.5 252C367.5 186.002 421.002 132.5 487 132.5Z" stroke="#E6C97E"/>
<path d="M487 132.5C552.998 132.5 606.5 186.002 606.5 252C606.5 317.998 552.998 371.5 487 371.5C421.002 371.5 367.5 317.998 367.5 252C367.5 186.002 421.002 132.5 487 132.5Z" stroke="url(#paint2_linear_2301_5287)"/>
<path d="M480.274 196.757C483.026 191.183 490.974 191.183 493.726 196.757L505.263 220.134C506.501 222.643 508.895 224.382 511.663 224.784L537.461 228.532C543.613 229.426 546.069 236.986 541.617 241.325L522.95 259.521C520.947 261.474 520.032 264.289 520.505 267.046L524.912 292.739C525.963 298.866 519.532 303.538 514.03 300.646L490.955 288.515C488.479 287.213 485.521 287.213 483.045 288.515L459.97 300.646C454.468 303.538 448.037 298.866 449.088 292.739L453.495 267.046C453.968 264.289 453.053 261.474 451.05 259.521L432.383 241.325C427.931 236.986 430.387 229.426 436.539 228.532L462.337 224.784C465.105 224.382 467.499 222.643 468.737 220.134L480.274 196.757Z" stroke="#E6C97E"/>
<path d="M480.274 196.757C483.026 191.183 490.974 191.183 493.726 196.757L505.263 220.134C506.501 222.643 508.895 224.382 511.663 224.784L537.461 228.532C543.613 229.426 546.069 236.986 541.617 241.325L522.95 259.521C520.947 261.474 520.032 264.289 520.505 267.046L524.912 292.739C525.963 298.866 519.532 303.538 514.03 300.646L490.955 288.515C488.479 287.213 485.521 287.213 483.045 288.515L459.97 300.646C454.468 303.538 448.037 298.866 449.088 292.739L453.495 267.046C453.968 264.289 453.053 261.474 451.05 259.521L432.383 241.325C427.931 236.986 430.387 229.426 436.539 228.532L462.337 224.784C465.105 224.382 467.499 222.643 468.737 220.134L480.274 196.757Z" stroke="url(#paint3_linear_2301_5287)"/>
<path d="M190 347.5C255.998 347.5 309.5 401.002 309.5 467C309.5 532.998 255.998 586.5 190 586.5C124.002 586.5 70.5 532.998 70.5 467C70.5 401.002 124.002 347.5 190 347.5Z" stroke="#8CA3DA"/>
<path d="M190 347.5C255.998 347.5 309.5 401.002 309.5 467C309.5 532.998 255.998 586.5 190 586.5C124.002 586.5 70.5 532.998 70.5 467C70.5 401.002 124.002 347.5 190 347.5Z" stroke="url(#paint4_linear_2301_5287)"/>
<path d="M183.274 411.757C186.026 406.183 193.974 406.183 196.726 411.757L208.263 435.134C209.501 437.643 211.895 439.382 214.663 439.784L240.461 443.532C246.613 444.426 249.069 451.986 244.617 456.325L225.95 474.521C223.947 476.474 223.032 479.289 223.505 482.046L227.912 507.739C228.963 513.866 222.532 518.538 217.03 515.646L193.955 503.515C191.479 502.213 188.521 502.213 186.045 503.515L162.97 515.646C157.468 518.538 151.037 513.866 152.088 507.739L156.495 482.046C156.968 479.289 156.053 476.474 154.05 474.521L135.383 456.325C130.931 451.986 133.387 444.426 139.539 443.532L165.337 439.784C168.105 439.382 170.499 437.643 171.737 435.134L183.274 411.757Z" stroke="#8CA3DA"/>
<path d="M183.274 411.757C186.026 406.183 193.974 406.183 196.726 411.757L208.263 435.134C209.501 437.643 211.895 439.382 214.663 439.784L240.461 443.532C246.613 444.426 249.069 451.986 244.617 456.325L225.95 474.521C223.947 476.474 223.032 479.289 223.505 482.046L227.912 507.739C228.963 513.866 222.532 518.538 217.03 515.646L193.955 503.515C191.479 502.213 188.521 502.213 186.045 503.515L162.97 515.646C157.468 518.538 151.037 513.866 152.088 507.739L156.495 482.046C156.968 479.289 156.053 476.474 154.05 474.521L135.383 456.325C130.931 451.986 133.387 444.426 139.539 443.532L165.337 439.784C168.105 439.382 170.499 437.643 171.737 435.134L183.274 411.757Z" stroke="url(#paint5_linear_2301_5287)"/>
<path d="M417 347.5C482.998 347.5 536.5 401.002 536.5 467C536.5 532.998 482.998 586.5 417 586.5C351.002 586.5 297.5 532.998 297.5 467C297.5 401.002 351.002 347.5 417 347.5Z" stroke="#B6C190"/>
<path d="M417 347.5C482.998 347.5 536.5 401.002 536.5 467C536.5 532.998 482.998 586.5 417 586.5C351.002 586.5 297.5 532.998 297.5 467C297.5 401.002 351.002 347.5 417 347.5Z" stroke="url(#paint6_linear_2301_5287)"/>
<path d="M410.274 411.757C413.026 406.183 420.974 406.183 423.726 411.757L435.263 435.134C436.501 437.643 438.895 439.382 441.663 439.784L467.461 443.532C473.613 444.426 476.069 451.986 471.617 456.325L452.95 474.521C450.947 476.474 450.032 479.289 450.505 482.046L454.912 507.739C455.963 513.866 449.532 518.538 444.03 515.646L420.955 503.515C418.479 502.213 415.521 502.213 413.045 503.515L389.97 515.646C384.468 518.538 378.037 513.866 379.088 507.739L383.495 482.046C383.968 479.289 383.053 476.474 381.05 474.521L362.383 456.325C357.931 451.986 360.387 444.426 366.539 443.532L392.337 439.784C395.105 439.382 397.499 437.643 398.737 435.134L410.274 411.757Z" stroke="#B6C190"/>
<path d="M410.274 411.757C413.026 406.183 420.974 406.183 423.726 411.757L435.263 435.134C436.501 437.643 438.895 439.382 441.663 439.784L467.461 443.532C473.613 444.426 476.069 451.986 471.617 456.325L452.95 474.521C450.947 476.474 450.032 479.289 450.505 482.046L454.912 507.739C455.963 513.866 449.532 518.538 444.03 515.646L420.955 503.515C418.479 502.213 415.521 502.213 413.045 503.515L389.97 515.646C384.468 518.538 378.037 513.866 379.088 507.739L383.495 482.046C383.968 479.289 383.053 476.474 381.05 474.521L362.383 456.325C357.931 451.986 360.387 444.426 366.539 443.532L392.337 439.784C395.105 439.382 397.499 437.643 398.737 435.134L410.274 411.757Z" stroke="url(#paint7_linear_2301_5287)"/>
<path d="M120 132.5C185.998 132.5 239.5 186.002 239.5 252C239.5 317.998 185.998 371.5 120 371.5C54.002 371.5 0.500004 317.998 0.5 252C0.5 186.002 54.002 132.5 120 132.5Z" stroke="#A36AB7"/>
<path d="M120 132.5C185.998 132.5 239.5 186.002 239.5 252C239.5 317.998 185.998 371.5 120 371.5C54.002 371.5 0.500004 317.998 0.5 252C0.5 186.002 54.002 132.5 120 132.5Z" stroke="url(#paint8_linear_2301_5287)"/>
<path d="M113.274 196.757C116.026 191.183 123.974 191.183 126.726 196.757L138.263 220.134C139.501 222.643 141.895 224.382 144.663 224.784L170.461 228.532C176.613 229.426 179.069 236.986 174.617 241.325L155.95 259.521C153.947 261.474 153.032 264.289 153.505 267.046L157.912 292.739C158.963 298.866 152.532 303.538 147.03 300.646L123.955 288.515C121.479 287.213 118.521 287.213 116.045 288.515L92.9697 300.646C87.4676 303.538 81.0371 298.866 82.0879 292.739L86.4951 267.046C86.968 264.289 86.0531 261.474 84.0498 259.521L65.3828 241.325C60.9315 236.986 63.3875 229.426 69.5391 228.532L95.3369 224.784C98.1055 224.382 100.499 222.643 101.737 220.134L113.274 196.757Z" stroke="#A36AB7"/>
<path d="M113.274 196.757C116.026 191.183 123.974 191.183 126.726 196.757L138.263 220.134C139.501 222.643 141.895 224.382 144.663 224.784L170.461 228.532C176.613 229.426 179.069 236.986 174.617 241.325L155.95 259.521C153.947 261.474 153.032 264.289 153.505 267.046L157.912 292.739C158.963 298.866 152.532 303.538 147.03 300.646L123.955 288.515C121.479 287.213 118.521 287.213 116.045 288.515L92.9697 300.646C87.4676 303.538 81.0371 298.866 82.0879 292.739L86.4951 267.046C86.968 264.289 86.0531 261.474 84.0498 259.521L65.3828 241.325C60.9315 236.986 63.3875 229.426 69.5391 228.532L95.3369 224.784C98.1055 224.382 100.499 222.643 101.737 220.134L113.274 196.757Z" stroke="url(#paint9_linear_2301_5287)"/>
<defs>
<linearGradient id="paint0_linear_2301_5287" x1="304" y1="120" x2="304" y2="240" gradientUnits="userSpaceOnUse">
<stop stop-opacity="0.6"/>
<stop offset="1" stop-opacity="0"/>
</linearGradient>
<linearGradient id="paint1_linear_2301_5287" x1="304" y1="50" x2="304" y2="190" gradientUnits="userSpaceOnUse">
<stop stop-opacity="0.8"/>
<stop offset="1" stop-opacity="0"/>
</linearGradient>
<linearGradient id="paint2_linear_2301_5287" x1="487" y1="252" x2="487" y2="372" gradientUnits="userSpaceOnUse">
<stop stop-opacity="0.6"/>
<stop offset="1" stop-opacity="0"/>
</linearGradient>
<linearGradient id="paint3_linear_2301_5287" x1="487" y1="182" x2="487" y2="322" gradientUnits="userSpaceOnUse">
<stop stop-opacity="0.8"/>
<stop offset="1" stop-opacity="0"/>
</linearGradient>
<linearGradient id="paint4_linear_2301_5287" x1="190" y1="467" x2="190" y2="587" gradientUnits="userSpaceOnUse">
<stop stop-opacity="0.6"/>
<stop offset="1" stop-opacity="0"/>
</linearGradient>
<linearGradient id="paint5_linear_2301_5287" x1="190" y1="397" x2="190" y2="537" gradientUnits="userSpaceOnUse">
<stop stop-opacity="0.8"/>
<stop offset="1" stop-opacity="0"/>
</linearGradient>
<linearGradient id="paint6_linear_2301_5287" x1="417" y1="467" x2="417" y2="587" gradientUnits="userSpaceOnUse">
<stop stop-opacity="0.6"/>
<stop offset="1" stop-opacity="0"/>
</linearGradient>
<linearGradient id="paint7_linear_2301_5287" x1="417" y1="397" x2="417" y2="537" gradientUnits="userSpaceOnUse">
<stop stop-opacity="0.8"/>
<stop offset="1" stop-opacity="0"/>
</linearGradient>
<linearGradient id="paint8_linear_2301_5287" x1="120" y1="252" x2="120" y2="372" gradientUnits="userSpaceOnUse">
<stop stop-opacity="0.6"/>
<stop offset="1" stop-opacity="0"/>
</linearGradient>
<linearGradient id="paint9_linear_2301_5287" x1="120" y1="182" x2="120" y2="322" gradientUnits="userSpaceOnUse">
<stop stop-opacity="0.8"/>
<stop offset="1" stop-opacity="0"/>
</linearGradient>
</defs>
</svg>
