<svg width="24" height="24" viewBox="0 0 24 24" fill="none" xmlns="http://www.w3.org/2000/svg">
<path d="M16.3005 4.80003C16.3005 7.17487 14.3753 9.10006 12.0004 9.10006C9.6256 9.10006 7.70041 7.17487 7.70041 4.80003C7.70041 2.42519 9.6256 0.5 12.0004 0.5C14.3753 0.5 16.3005 2.42519 16.3005 4.80003Z" fill="#D17650" stroke="black"/>
<path d="M12.1001 19.1999C12.1001 21.5748 10.1749 23.5 7.80003 23.5C5.42519 23.5 3.5 21.5748 3.5 19.1999C3.5 16.8251 5.42519 14.8999 7.80003 14.8999C10.1749 14.8999 12.1001 16.8251 12.1001 19.1999Z" fill="#8CA3DA" stroke="black"/>
<path d="M20.8 19.1999C20.8 21.5748 18.8748 23.5 16.5 23.5C14.1251 23.5 12.2 21.5748 12.2 19.1999C12.2 16.8251 14.1251 14.8999 16.5 14.8999C18.8748 14.8999 20.8 16.8251 20.8 19.1999Z" fill="#B6C190" stroke="black"/>
<path d="M23.5006 10.1998C23.5006 12.5747 21.5754 14.4999 19.2006 14.4999C16.8258 14.4999 14.9006 12.5747 14.9006 10.1998C14.9006 7.82498 16.8258 5.8998 19.2006 5.8998C21.5754 5.8998 23.5006 7.82498 23.5006 10.1998Z" fill="#E6C97E" stroke="black"/>
<path d="M9.10006 10.1998C9.10006 12.5747 7.17487 14.4999 4.80003 14.4999C2.42519 14.4999 0.5 12.5747 0.5 10.1998C0.5 7.82498 2.42519 5.8998 4.80003 5.8998C7.17487 5.8998 9.10006 7.82498 9.10006 10.1998Z" fill="#A36AB7" stroke="black"/>
</svg>
