<svg width="160" height="24" viewBox="0 0 160 24" fill="none" xmlns="http://www.w3.org/2000/svg">
<path d="M1.104 17V9.064H2.32L2.416 10.216C2.672 9.78933 3.01333 9.45867 3.44 9.224C3.86667 8.98933 4.34667 8.872 4.88 8.872C5.50933 8.872 6.048 9 6.496 9.256C6.95467 9.512 7.30667 9.90133 7.552 10.424C7.82933 9.944 8.208 9.56533 8.688 9.288C9.17867 9.01067 9.70667 8.872 10.272 8.872C11.2213 8.872 11.9787 9.16 12.544 9.736C13.1093 10.3013 13.392 11.176 13.392 12.36V17H12.064V12.504C12.064 11.6827 11.8987 11.064 11.568 10.648C11.2373 10.232 10.7627 10.024 10.144 10.024C9.504 10.024 8.97067 10.2747 8.544 10.776C8.128 11.2667 7.92 11.9707 7.92 12.888V17H6.576V12.504C6.576 11.6827 6.41067 11.064 6.08 10.648C5.74933 10.232 5.27467 10.024 4.656 10.024C4.02667 10.024 3.49867 10.2747 3.072 10.776C2.656 11.2667 2.448 11.9707 2.448 12.888V17H1.104ZM18.0565 17.192C17.3952 17.192 16.8458 17.08 16.4085 16.856C15.9712 16.632 15.6458 16.3333 15.4325 15.96C15.2192 15.5867 15.1125 15.1813 15.1125 14.744C15.1125 13.9333 15.4218 13.3093 16.0405 12.872C16.6592 12.4347 17.5018 12.216 18.5685 12.216H20.7125V12.12C20.7125 11.4267 20.5312 10.904 20.1685 10.552C19.8058 10.1893 19.3205 10.008 18.7125 10.008C18.1898 10.008 17.7365 10.1413 17.3525 10.408C16.9792 10.664 16.7445 11.0427 16.6485 11.544H15.2725C15.3258 10.968 15.5178 10.4827 15.8485 10.088C16.1898 9.69333 16.6112 9.39467 17.1125 9.192C17.6138 8.97867 18.1472 8.872 18.7125 8.872C19.8218 8.872 20.6538 9.17067 21.2085 9.768C21.7738 10.3547 22.0565 11.1387 22.0565 12.12V17H20.8565L20.7765 15.576C20.5525 16.024 20.2218 16.408 19.7845 16.728C19.3578 17.0373 18.7818 17.192 18.0565 17.192ZM18.2645 16.056C18.7765 16.056 19.2138 15.9227 19.5765 15.656C19.9498 15.3893 20.2325 15.0427 20.4245 14.616C20.6165 14.1893 20.7125 13.7413 20.7125 13.272V13.256H18.6805C17.8912 13.256 17.3312 13.3947 17.0005 13.672C16.6805 13.9387 16.5205 14.2747 16.5205 14.68C16.5205 15.096 16.6698 15.432 16.9685 15.688C17.2778 15.9333 17.7098 16.056 18.2645 16.056ZM27.6727 17.192C26.8834 17.192 26.1901 17.0107 25.5928 16.648C25.0061 16.2853 24.5474 15.7893 24.2168 15.16C23.8968 14.5307 23.7368 13.816 23.7368 13.016C23.7368 12.216 23.9021 11.5067 24.2328 10.888C24.5634 10.2587 25.0221 9.768 25.6088 9.416C26.1954 9.05333 26.8888 8.872 27.6888 8.872C28.3394 8.872 28.9154 9.00533 29.4168 9.272C29.9181 9.53867 30.3074 9.912 30.5848 10.392V5.48H31.9288V17H30.7128L30.5848 15.688C30.3288 16.072 29.9608 16.4187 29.4808 16.728C29.0008 17.0373 28.3981 17.192 27.6727 17.192ZM27.8168 16.024C28.3501 16.024 28.8194 15.9013 29.2248 15.656C29.6408 15.4 29.9608 15.048 30.1848 14.6C30.4194 14.152 30.5368 13.6293 30.5368 13.032C30.5368 12.4347 30.4194 11.912 30.1848 11.464C29.9608 11.016 29.6408 10.6693 29.2248 10.424C28.8194 10.168 28.3501 10.04 27.8168 10.04C27.2941 10.04 26.8248 10.168 26.4088 10.424C26.0034 10.6693 25.6834 11.016 25.4488 11.464C25.2248 11.912 25.1128 12.4347 25.1128 13.032C25.1128 13.6293 25.2248 14.152 25.4488 14.6C25.6834 15.048 26.0034 15.4 26.4088 15.656C26.8248 15.9013 27.2941 16.024 27.8168 16.024ZM37.6876 17.192C36.9303 17.192 36.2583 17.0213 35.6716 16.68C35.085 16.328 34.621 15.8427 34.2796 15.224C33.949 14.6053 33.7836 13.8747 33.7836 13.032C33.7836 12.2 33.949 11.4747 34.2796 10.856C34.6103 10.2267 35.069 9.74133 35.6556 9.4C36.253 9.048 36.941 8.872 37.7196 8.872C38.4876 8.872 39.149 9.048 39.7036 9.4C40.269 9.74133 40.701 10.1947 40.9996 10.76C41.2983 11.3253 41.4476 11.9333 41.4476 12.584C41.4476 12.7013 41.4423 12.8187 41.4316 12.936C41.4316 13.0533 41.4316 13.1867 41.4316 13.336H35.1116C35.1436 13.944 35.2823 14.4507 35.5276 14.856C35.7836 15.2507 36.0983 15.5493 36.4716 15.752C36.8556 15.9547 37.261 16.056 37.6876 16.056C38.2423 16.056 38.7063 15.928 39.0796 15.672C39.453 15.416 39.725 15.0693 39.8956 14.632H41.2236C41.0103 15.368 40.5996 15.9813 39.9916 16.472C39.3943 16.952 38.6263 17.192 37.6876 17.192ZM37.6876 10.008C37.0476 10.008 36.477 10.2053 35.9756 10.6C35.485 10.984 35.2023 11.5493 35.1276 12.296H40.1196C40.0876 11.5813 39.8423 11.0213 39.3836 10.616C38.925 10.2107 38.3596 10.008 37.6876 10.008ZM49.0634 17L46.7434 9.064H48.0874L49.7674 15.288L51.6234 9.064H53.1434L55.0154 15.288L56.6794 9.064H58.0394L55.7194 17H54.3434L52.3914 10.456L50.4394 17H49.0634ZM60.3419 7.304C60.0752 7.304 59.8512 7.21867 59.6699 7.048C59.4992 6.86667 59.4139 6.64267 59.4139 6.376C59.4139 6.12 59.4992 5.90667 59.6699 5.736C59.8512 5.56533 60.0752 5.48 60.3419 5.48C60.5979 5.48 60.8165 5.56533 60.9979 5.736C61.1792 5.90667 61.2699 6.12 61.2699 6.376C61.2699 6.64267 61.1792 6.86667 60.9979 7.048C60.8165 7.21867 60.5979 7.304 60.3419 7.304ZM59.6699 17V9.064H61.0139V17H59.6699ZM66.49 17C65.7647 17 65.194 16.824 64.778 16.472C64.362 16.12 64.154 15.4853 64.154 14.568V10.2H62.778V9.064H64.154L64.33 7.16H65.498V9.064H67.834V10.2H65.498V14.568C65.498 15.0693 65.5993 15.4107 65.802 15.592C66.0047 15.7627 66.362 15.848 66.874 15.848H67.706V17H66.49ZM69.5415 17V5.48H70.8855V10.424C71.1522 9.93333 71.5308 9.55467 72.0215 9.288C72.5122 9.01067 73.0455 8.872 73.6215 8.872C74.5388 8.872 75.2748 9.16 75.8295 9.736C76.3842 10.3013 76.6615 11.176 76.6615 12.36V17H75.3335V12.504C75.3335 10.8507 74.6668 10.024 73.3335 10.024C72.6402 10.024 72.0588 10.2747 71.5895 10.776C71.1202 11.2667 70.8855 11.9707 70.8855 12.888V17H69.5415Z" fill="#FFFFFF"/>
<path d="M104.363 6.18716L99.794 13.1768L98.5679 2.45435" stroke="#FFFFFF" stroke-width="0.96" stroke-linejoin="round"/>
<path d="M104.363 11.9446L99.794 13.1769L99.2218 17.7625" stroke="#FFFFFF" stroke-width="0.96" stroke-miterlimit="10"/>
<path d="M99.794 13.177L93.9937 21.6001L99.794 13.177Z" stroke="#FFFFFF" stroke-width="0.96" stroke-miterlimit="10"/>
<path d="M88.2682 13.135L93.9931 21.5999L88.2682 13.135Z" stroke="#FFFFFF" stroke-width="0.96" stroke-miterlimit="10"/>
<path d="M99.7938 13.1351H88.2686L93.9935 7.4021" stroke="#FFFFFF" stroke-width="0.96" stroke-linejoin="round"/>
<path d="M99.794 13.1351L93.9937 7.4021" stroke="#FFFFFF" stroke-width="0.96" stroke-miterlimit="10"/>
<path d="M83.6367 11.9907L88.2687 13.1349L88.7591 17.7487L88.2687 13.1349L83.6367 6.07812" stroke="#FFFFFF" stroke-width="0.96" stroke-miterlimit="10"/>
<path d="M88.2686 13.135L89.3584 2.3999" stroke="#FFFFFF" stroke-width="0.96" stroke-miterlimit="10"/>
<path d="M93.9936 21.5999L88.7591 17.7487L83.6367 11.9907V6.07815L89.3586 2.3999L93.9936 7.40197L98.5678 2.45431L104.363 6.18713V11.9445L99.2217 17.7624L93.9936 21.5999Z" stroke="#FFFFFF" stroke-width="0.96" stroke-linejoin="round"/>
<path d="M115.344 17.192C114.693 17.192 114.112 17.0587 113.6 16.792C113.099 16.5253 112.715 16.152 112.448 15.672L112.32 17H111.104V5.48H112.448V10.376C112.704 9.992 113.067 9.64533 113.536 9.336C114.016 9.02667 114.624 8.872 115.36 8.872C116.149 8.872 116.837 9.05333 117.424 9.416C118.011 9.77867 118.464 10.2747 118.784 10.904C119.115 11.5333 119.28 12.248 119.28 13.048C119.28 13.848 119.115 14.5627 118.784 15.192C118.464 15.8107 118.005 16.3013 117.408 16.664C116.821 17.016 116.133 17.192 115.344 17.192ZM115.2 16.024C115.733 16.024 116.203 15.9013 116.608 15.656C117.013 15.4 117.333 15.048 117.568 14.6C117.803 14.152 117.92 13.6293 117.92 13.032C117.92 12.4347 117.803 11.912 117.568 11.464C117.333 11.016 117.013 10.6693 116.608 10.424C116.203 10.168 115.733 10.04 115.2 10.04C114.667 10.04 114.197 10.168 113.792 10.424C113.387 10.6693 113.067 11.016 112.832 11.464C112.597 11.912 112.48 12.4347 112.48 13.032C112.48 13.6293 112.597 14.152 112.832 14.6C113.067 15.048 113.387 15.4 113.792 15.656C114.197 15.9013 114.667 16.024 115.2 16.024ZM121.374 20.52L123.342 16.232H122.878L119.726 9.064H121.182L123.806 15.24L126.59 9.064H127.982L122.782 20.52H121.374Z" fill="#FFFFFF"/>
<path d="M134.184 17V5.8H137.624C139.597 5.8 141.048 6.30133 141.976 7.304C142.915 8.30667 143.384 9.68267 143.384 11.432C143.384 13.1493 142.915 14.5093 141.976 15.512C141.048 16.504 139.597 17 137.624 17H134.184ZM135.528 15.88H137.592C138.68 15.88 139.544 15.704 140.184 15.352C140.835 14.9893 141.299 14.4773 141.576 13.816C141.853 13.144 141.992 12.3493 141.992 11.432C141.992 10.4933 141.853 9.688 141.576 9.016C141.299 8.344 140.835 7.82667 140.184 7.464C139.544 7.10133 138.68 6.92 137.592 6.92H135.528V15.88ZM145.325 17V5.8H146.669V15.928H151.885V17H145.325ZM154.574 17V6.904H151.23V5.8H159.262V6.904H155.918V17H154.574Z" fill="#FFFFFF"/>
</svg>
