<svg width="715" height="560" viewBox="0 0 715 560" fill="none" xmlns="http://www.w3.org/2000/svg">
<g clip-path="url(#clip0_788_1502)">
<path d="M477.5 120C477.5 185.998 423.998 239.5 358 239.5C292.002 239.5 238.5 185.998 238.5 120C238.5 54.002 292.002 0.5 358 0.5C423.998 0.5 477.5 54.002 477.5 120Z" stroke="#D17650"/>
<path d="M477.5 120C477.5 185.998 423.998 239.5 358 239.5C292.002 239.5 238.5 185.998 238.5 120C238.5 54.002 292.002 0.5 358 0.5C423.998 0.5 477.5 54.002 477.5 120Z" stroke="url(#paint0_linear_788_1502)"/>
<path d="M351.274 64.7572C354.026 59.1828 361.974 59.1828 364.726 64.7572L376.263 88.1342C377.501 90.6429 379.894 92.3817 382.663 92.784L408.461 96.5327C414.612 97.4266 417.069 104.986 412.617 109.325L393.95 127.522C391.946 129.475 391.032 132.288 391.505 135.045L395.912 160.739C396.963 166.866 390.532 171.538 385.03 168.646L361.955 156.515C359.479 155.213 356.521 155.213 354.045 156.515L330.97 168.646C325.468 171.538 319.037 166.866 320.088 160.739L324.495 135.045C324.968 132.288 324.054 129.475 322.05 127.522L303.383 109.325C298.931 104.986 301.388 97.4266 307.539 96.5327L333.337 92.784C336.106 92.3817 338.499 90.6429 339.737 88.1342L351.274 64.7572Z" stroke="#D17650"/>
<path d="M351.274 64.7572C354.026 59.1828 361.974 59.1828 364.726 64.7572L376.263 88.1342C377.501 90.6429 379.894 92.3817 382.663 92.784L408.461 96.5327C414.612 97.4266 417.069 104.986 412.617 109.325L393.95 127.522C391.946 129.475 391.032 132.288 391.505 135.045L395.912 160.739C396.963 166.866 390.532 171.538 385.03 168.646L361.955 156.515C359.479 155.213 356.521 155.213 354.045 156.515L330.97 168.646C325.468 171.538 319.037 166.866 320.088 160.739L324.495 135.045C324.968 132.288 324.054 129.475 322.05 127.522L303.383 109.325C298.931 104.986 301.388 97.4266 307.539 96.5327L333.337 92.784C336.106 92.3817 338.499 90.6429 339.737 88.1342L351.274 64.7572Z" stroke="url(#paint1_linear_788_1502)"/>
<path d="M239.5 210C239.5 275.998 185.998 329.5 120 329.5C54.002 329.5 0.5 275.998 0.5 210C0.5 144.002 54.002 90.5 120 90.5C185.998 90.5 239.5 144.002 239.5 210Z" stroke="#A36AB7"/>
<path d="M239.5 210C239.5 275.998 185.998 329.5 120 329.5C54.002 329.5 0.5 275.998 0.5 210C0.5 144.002 54.002 90.5 120 90.5C185.998 90.5 239.5 144.002 239.5 210Z" stroke="url(#paint2_linear_788_1502)"/>
<path d="M113.274 154.757C116.026 149.183 123.974 149.183 126.726 154.757L138.263 178.134C139.501 180.643 141.894 182.382 144.663 182.784L170.461 186.533C176.612 187.427 179.069 194.986 174.617 199.325L155.95 217.522C153.946 219.475 153.032 222.288 153.505 225.045L157.912 250.739C158.963 256.866 152.532 261.538 147.03 258.646L123.955 246.515C121.479 245.213 118.521 245.213 116.045 246.515L92.9701 258.646C87.4679 261.538 81.0372 256.866 82.088 250.739L86.4949 225.045C86.9678 222.288 86.0536 219.475 84.0503 217.522L65.3826 199.325C60.9313 194.986 63.3876 187.427 69.5392 186.533L95.3373 182.784C98.1058 182.382 100.499 180.643 101.737 178.134L113.274 154.757Z" stroke="#A36AB7"/>
<path d="M113.274 154.757C116.026 149.183 123.974 149.183 126.726 154.757L138.263 178.134C139.501 180.643 141.894 182.382 144.663 182.784L170.461 186.533C176.612 187.427 179.069 194.986 174.617 199.325L155.95 217.522C153.946 219.475 153.032 222.288 153.505 225.045L157.912 250.739C158.963 256.866 152.532 261.538 147.03 258.646L123.955 246.515C121.479 245.213 118.521 245.213 116.045 246.515L92.9701 258.646C87.4679 261.538 81.0372 256.866 82.088 250.739L86.4949 225.045C86.9678 222.288 86.0536 219.475 84.0503 217.522L65.3826 199.325C60.9313 194.986 63.3876 187.427 69.5392 186.533L95.3373 182.784C98.1058 182.382 100.499 180.643 101.737 178.134L113.274 154.757Z" stroke="url(#paint3_linear_788_1502)"/>
<path d="M714.5 210C714.5 275.998 660.998 329.5 595 329.5C529.002 329.5 475.5 275.998 475.5 210C475.5 144.002 529.002 90.5 595 90.5C660.998 90.5 714.5 144.002 714.5 210Z" stroke="#E6C97E"/>
<path d="M714.5 210C714.5 275.998 660.998 329.5 595 329.5C529.002 329.5 475.5 275.998 475.5 210C475.5 144.002 529.002 90.5 595 90.5C660.998 90.5 714.5 144.002 714.5 210Z" stroke="url(#paint4_linear_788_1502)"/>
<path d="M588.274 154.757C591.026 149.183 598.974 149.183 601.726 154.757L613.263 178.134C614.501 180.643 616.894 182.382 619.663 182.784L645.461 186.533C651.612 187.427 654.069 194.986 649.617 199.325L630.95 217.522C628.946 219.475 628.032 222.288 628.505 225.045L632.912 250.739C633.963 256.866 627.532 261.538 622.03 258.646L598.955 246.515C596.479 245.213 593.521 245.213 591.045 246.515L567.97 258.646C562.468 261.538 556.037 256.866 557.088 250.739L561.495 225.045C561.968 222.288 561.054 219.475 559.05 217.522L540.383 199.325C535.931 194.986 538.388 187.427 544.539 186.533L570.337 182.784C573.106 182.382 575.499 180.643 576.737 178.134L588.274 154.757Z" stroke="#E6C97E"/>
<path d="M588.274 154.757C591.026 149.183 598.974 149.183 601.726 154.757L613.263 178.134C614.501 180.643 616.894 182.382 619.663 182.784L645.461 186.533C651.612 187.427 654.069 194.986 649.617 199.325L630.95 217.522C628.946 219.475 628.032 222.288 628.505 225.045L632.912 250.739C633.963 256.866 627.532 261.538 622.03 258.646L598.955 246.515C596.479 245.213 593.521 245.213 591.045 246.515L567.97 258.646C562.468 261.538 556.037 256.866 557.088 250.739L561.495 225.045C561.968 222.288 561.054 219.475 559.05 217.522L540.383 199.325C535.931 194.986 538.388 187.427 544.539 186.533L570.337 182.784C573.106 182.382 575.499 180.643 576.737 178.134L588.274 154.757Z" stroke="url(#paint5_linear_788_1502)"/>
<path d="M349.5 440C349.5 505.998 295.998 559.5 230 559.5C164.002 559.5 110.5 505.998 110.5 440C110.5 374.002 164.002 320.5 230 320.5C295.998 320.5 349.5 374.002 349.5 440Z" stroke="#8CA3DA"/>
<path d="M349.5 440C349.5 505.998 295.998 559.5 230 559.5C164.002 559.5 110.5 505.998 110.5 440C110.5 374.002 164.002 320.5 230 320.5C295.998 320.5 349.5 374.002 349.5 440Z" stroke="url(#paint6_linear_788_1502)"/>
<path d="M223.274 384.757C226.026 379.183 233.974 379.183 236.726 384.757L248.263 408.134C249.501 410.643 251.894 412.382 254.663 412.784L280.461 416.533C286.612 417.427 289.069 424.986 284.617 429.325L265.95 447.522C263.946 449.475 263.032 452.288 263.505 455.045L267.912 480.739C268.963 486.866 262.532 491.538 257.03 488.646L233.955 476.515C231.479 475.213 228.521 475.213 226.045 476.515L202.97 488.646C197.468 491.538 191.037 486.866 192.088 480.739L196.495 455.045C196.968 452.288 196.054 449.475 194.05 447.522L175.383 429.325C170.931 424.986 173.388 417.427 179.539 416.533L205.337 412.784C208.106 412.382 210.499 410.643 211.737 408.134L223.274 384.757Z" stroke="#8CA3DA"/>
<path d="M223.274 384.757C226.026 379.183 233.974 379.183 236.726 384.757L248.263 408.134C249.501 410.643 251.894 412.382 254.663 412.784L280.461 416.533C286.612 417.427 289.069 424.986 284.617 429.325L265.95 447.522C263.946 449.475 263.032 452.288 263.505 455.045L267.912 480.739C268.963 486.866 262.532 491.538 257.03 488.646L233.955 476.515C231.479 475.213 228.521 475.213 226.045 476.515L202.97 488.646C197.468 491.538 191.037 486.866 192.088 480.739L196.495 455.045C196.968 452.288 196.054 449.475 194.05 447.522L175.383 429.325C170.931 424.986 173.388 417.427 179.539 416.533L205.337 412.784C208.106 412.382 210.499 410.643 211.737 408.134L223.274 384.757Z" stroke="url(#paint7_linear_788_1502)"/>
<path d="M605.5 440C605.5 505.998 551.998 559.5 486 559.5C420.002 559.5 366.5 505.998 366.5 440C366.5 374.002 420.002 320.5 486 320.5C551.998 320.5 605.5 374.002 605.5 440Z" stroke="#B6C190"/>
<path d="M605.5 440C605.5 505.998 551.998 559.5 486 559.5C420.002 559.5 366.5 505.998 366.5 440C366.5 374.002 420.002 320.5 486 320.5C551.998 320.5 605.5 374.002 605.5 440Z" stroke="url(#paint8_linear_788_1502)"/>
<path d="M479.274 384.757C482.026 379.183 489.974 379.183 492.726 384.757L504.263 408.134C505.501 410.643 507.894 412.382 510.663 412.784L536.461 416.533C542.612 417.427 545.069 424.986 540.617 429.325L521.95 447.522C519.946 449.475 519.032 452.288 519.505 455.045L523.912 480.739C524.963 486.866 518.532 491.538 513.03 488.646L489.955 476.515C487.479 475.213 484.521 475.213 482.045 476.515L458.97 488.646C453.468 491.538 447.037 486.866 448.088 480.739L452.495 455.045C452.968 452.288 452.054 449.475 450.05 447.522L431.383 429.325C426.931 424.986 429.388 417.427 435.539 416.533L461.337 412.784C464.106 412.382 466.499 410.643 467.737 408.134L479.274 384.757Z" stroke="#B6C190"/>
<path d="M479.274 384.757C482.026 379.183 489.974 379.183 492.726 384.757L504.263 408.134C505.501 410.643 507.894 412.382 510.663 412.784L536.461 416.533C542.612 417.427 545.069 424.986 540.617 429.325L521.95 447.522C519.946 449.475 519.032 452.288 519.505 455.045L523.912 480.739C524.963 486.866 518.532 491.538 513.03 488.646L489.955 476.515C487.479 475.213 484.521 475.213 482.045 476.515L458.97 488.646C453.468 491.538 447.037 486.866 448.088 480.739L452.495 455.045C452.968 452.288 452.054 449.475 450.05 447.522L431.383 429.325C426.931 424.986 429.388 417.427 435.539 416.533L461.337 412.784C464.106 412.382 466.499 410.643 467.737 408.134L479.274 384.757Z" stroke="url(#paint9_linear_788_1502)"/>
</g>
<defs>
<linearGradient id="paint0_linear_788_1502" x1="358" y1="120" x2="358" y2="240" gradientUnits="userSpaceOnUse">
<stop stop-opacity="0.6"/>
<stop offset="1" stop-opacity="0"/>
</linearGradient>
<linearGradient id="paint1_linear_788_1502" x1="358" y1="50" x2="358" y2="190" gradientUnits="userSpaceOnUse">
<stop stop-opacity="0.8"/>
<stop offset="1" stop-opacity="0"/>
</linearGradient>
<linearGradient id="paint2_linear_788_1502" x1="120" y1="210" x2="120" y2="330" gradientUnits="userSpaceOnUse">
<stop stop-opacity="0.6"/>
<stop offset="1" stop-opacity="0"/>
</linearGradient>
<linearGradient id="paint3_linear_788_1502" x1="120" y1="140" x2="120" y2="280" gradientUnits="userSpaceOnUse">
<stop stop-opacity="0.8"/>
<stop offset="1" stop-opacity="0"/>
</linearGradient>
<linearGradient id="paint4_linear_788_1502" x1="595" y1="210" x2="595" y2="330" gradientUnits="userSpaceOnUse">
<stop stop-opacity="0.6"/>
<stop offset="1" stop-opacity="0"/>
</linearGradient>
<linearGradient id="paint5_linear_788_1502" x1="595" y1="140" x2="595" y2="280" gradientUnits="userSpaceOnUse">
<stop stop-opacity="0.8"/>
<stop offset="1" stop-opacity="0"/>
</linearGradient>
<linearGradient id="paint6_linear_788_1502" x1="230" y1="440" x2="230" y2="560" gradientUnits="userSpaceOnUse">
<stop stop-opacity="0.6"/>
<stop offset="1" stop-opacity="0"/>
</linearGradient>
<linearGradient id="paint7_linear_788_1502" x1="230" y1="370" x2="230" y2="510" gradientUnits="userSpaceOnUse">
<stop stop-opacity="0.8"/>
<stop offset="1" stop-opacity="0"/>
</linearGradient>
<linearGradient id="paint8_linear_788_1502" x1="486" y1="440" x2="486" y2="560" gradientUnits="userSpaceOnUse">
<stop stop-opacity="0.6"/>
<stop offset="1" stop-opacity="0"/>
</linearGradient>
<linearGradient id="paint9_linear_788_1502" x1="486" y1="370" x2="486" y2="510" gradientUnits="userSpaceOnUse">
<stop stop-opacity="0.8"/>
<stop offset="1" stop-opacity="0"/>
</linearGradient>
<clipPath id="clip0_788_1502">
<rect width="715" height="560" fill="white"/>
</clipPath>
</defs>
</svg>
